<?xml version="1.0" encoding="utf-8"?>
<!-- Svg Vector Icons : http://www.sfont.cn -->
<svg version="1.1" xmlns="http://www.w3.org/2000/svg" xmlns:xlink="http://www.w3.org/1999/xlink" x="0px" y="0px" viewBox="0 0 1000 1000" enable-background="new 0 0 1000 1000" xml:space="preserve">
  <metadata> Svg Vector Icons : http://www.sfont.cn </metadata>
  <g>
    <path fill="#56ABE4" d="M500,549.5c81.9,0,156.1,33.3,209.9,87.1l-70,70c-35.8-35.8-85.3-58.1-139.9-58.1c-54.6,0-104.1,22.2-139.9,58.1l-70-70C343.8,582.8,418,549.5,500,549.5L500,549.5z M149.9,496.5c93.5-93.5,217.8-145,350-145c132.2,0,256.5,51.5,350,145l-70,70c-74.8-74.8-174.2-116-280-116c-105.8,0-205.2,41.2-280,116L149.9,496.5L149.9,496.5z M769.7,208c82.5,34.9,156.6,84.9,220.3,148.5l0,0l-70,70c-112.2-112.2-261.4-174-420-174c-158.6,0-307.8,61.8-420,174l-70-70C73.6,292.9,147.8,242.9,230.3,208c85.5-36.1,176.2-54.5,269.8-54.5C593.6,153.5,684.3,171.8,769.7,208L769.7,208z M450.5,797c0-27.3,22.2-49.5,49.5-49.5s49.5,22.2,49.5,49.5c0,27.3-22.2,49.5-49.5,49.5S450.5,824.3,450.5,797z"/>
  </g>
</svg>