<?xml version="1.0" encoding="utf-8"?>
<!-- Svg Vector Icons : http://www.sfont.cn -->
<svg version="1.1" xmlns="http://www.w3.org/2000/svg" xmlns:xlink="http://www.w3.org/1999/xlink" x="0px" y="0px" viewBox="0 0 1000 1000" enable-background="new 0 0 1000 1000" xml:space="preserve">
	<metadata> Svg Vector Icons : http://www.sfont.cn </metadata>
	<g style="fill: #2B2B2B" transform="translate(0.000000,511.000000) scale(0.100000,-0.100000)">
		<path d="M100,110v-4900h4900h4900V110v4900H5000H100V110z M3438.2,2358L4990.3,805.9l1556,1556l1556,1556l342.1-344.1l344.1-342.1l-1556-1556l-1556-1556l1556-1556l1556-1556l-344.1-342.1l-342.1-344.1l-1556,1556l-1556,1556l-1556-1556l-1556-1556l-342.1,344.1l-344.1,342.1l1556,1556l1556,1556l-1556,1556l-1556,1556l338.3,338.3c185.6,185.6,342.1,338.3,347.9,338.3C1884.1,3908.2,2585.8,3210.4,3438.2,2358z"/>
	</g>
</svg>