<?xml version="1.0" encoding="utf-8"?>
<!-- Svg Vector Icons : http://www.sfont.cn -->
<svg version="1.1" xmlns="http://www.w3.org/2000/svg" xmlns:xlink="http://www.w3.org/1999/xlink" x="0px" y="0px" viewBox="0 0 1000 1000" enable-background="new 0 0 1000 1000" xml:space="preserve">
	<metadata> Svg Vector Icons : http://www.sfont.cn </metadata>
	<g>
		<path style="fill: 
#11CD6E" d="M765.9,500.1c0,9-4.2,17-12.6,24.1L406.8,817.5c-8.4,6.4-18.3,9.6-29.7,9.6c-11.4,0-21-3.2-28.6-9.6c-7.6-6.4-11.4-14.5-11.4-24.1V638.1H51.2c-11.4,0-21-3.5-28.6-10.6S10.8,612.3,10,603.3V396.9c0-9.6,4.2-17.7,12.6-24.1s17.9-10,28.6-10.6H337V206.8c0-9,3.8-17,11.4-24.1c7.6-7.1,17.2-10.3,28.6-9.6c11.4,0.6,21.3,3.9,29.7,9.6L753.3,476C761.7,482.4,765.9,490.4,765.9,500.1z M990,311v378.2c0,43.1-17.9,79.8-53.7,110c-35.8,30.2-79.3,45.3-130.4,45.3H602.3c-5.3,0-10.3-1.6-14.9-4.8s-6.5-7.4-5.7-12.5c0-1.3-0.4-4.8-1.1-10.6c-0.8-5.8-0.8-10.6,0-14.5c0.8-3.9,1.5-8,2.3-12.5c0.8-4.5,2.7-8,5.7-10.6c3-2.6,7.6-3.5,13.7-2.9h203.5c28.2,0,52.2-8.7,72-26.1c19.8-17.4,30.1-37.6,30.9-60.8V311c0-23.8-10.3-44.1-30.9-60.8c-20.6-16.7-44.6-25.4-72-26.1h-199c0,0-2.3,0-6.9,0s-6.9-0.6-6.9-1.9c0-1.3-1.9-2.3-5.7-2.9c-3.8-0.6-5.3-2.3-4.6-4.8c0.8-2.6,0.4-5.1-1.1-7.7c0-1.3-0.4-4.8-1.1-10.6c-0.8-5.8-0.8-10.6,0-14.5c0.8-3.9,1.5-8,2.3-12.5c0.8-4.5,2.7-8,5.7-10.6c3-2.6,7.6-3.5,13.7-2.9h203.5c51.1,0,94.5,15.1,130.4,45.3C972.1,231.2,990,267.9,990,311z"/>
	</g>
</svg>