<?xml version="1.0" encoding="utf-8"?>
<!-- Svg Vector Icons : http://www.sfont.cn -->
<svg version="1.1" xmlns="http://www.w3.org/2000/svg" xmlns:xlink="http://www.w3.org/1999/xlink" x="0px" y="0px" viewBox="0 0 1000 1000" enable-background="new 0 0 1000 1000" xml:space="preserve">
<metadata> Svg Vector Icons : http://www.sfont.cn </metadata>
	<g>
		<path style="fill: #EB4F38" d="M409.8,819.2c0,1.4,0.4,5.3,1.1,11.5c0.7,6.3,0.7,11.2,0,14.7c-0.7,3.5-1.5,8.4-2.2,14.7c-0.7,6.3-2.6,10.1-5.6,11.5c-3,1.4-7.5,2.4-13.4,3.2H190.3c-50,0-92.6-16.5-127.7-49.4C27.5,792.6,10,752.7,10,705.8V294.2c0-46.9,17.5-86.8,52.6-119.7c35.1-32.9,77.7-49.4,127.7-49.4h199.4c6,0,10.8,1.8,14.6,5.3c3.7,3.5,5.6,8.1,5.6,13.7c0,1.4,0.4,5.2,1.1,11.5c0.7,6.3,0.7,11.5,0,15.7c-0.7,4.2-1.5,8.8-2.2,13.7c-0.7,4.9-2.6,8.8-5.6,11.5c-3,2.8-7.5,3.9-13.4,3.1H190.3c-27.6,0-51.1,9.5-70.6,28.4c-19.4,18.9-29.5,40.9-30.2,66.1v411.6c0,25.9,10.1,48,30.2,66.2c20.2,18.2,43.7,27.7,70.6,28.3h194.9c0,0,2.2,0,6.7,0s7.1,0.7,7.8,2.1c0.7,1.4,2.2,2.4,4.5,3.2c2.2,0.7,3.7,2.4,4.5,5.2C409.5,813.6,409.8,816.4,409.8,819.2z M990,500c0,9.8-4.1,18.5-12.3,26.3L638.3,845.5c-8.2,7-17.5,10.5-28,10.5s-19.8-3.5-28-10.5c-8.2-7-12.3-15.8-12.3-26.3v-169H290c-10.5,0-19.8-3.8-28-11.5c-8.2-7.7-12.3-16.5-12.3-26.2V387.6c0-10.5,4.1-19.2,12.3-26.2c8.2-7,17.5-10.8,28-11.5h280v-169c0-9.8,4.1-18.6,12.3-26.3c8.2-7.7,17.5-11.2,28-10.5s19.8,4.2,28,10.5l339.4,319.2C985.9,480.7,990,489.5,990,500z"/>
	</g>
</svg>