<?xml version="1.0" encoding="utf-8"?>
<!-- Svg Vector Icons : http://www.sfont.cn -->
<!DOCTYPE svg PUBLIC "-//W3C//DTD SVG 1.1//EN" "http://www.w3.org/Graphics/SVG/1.1/DTD/svg11.dtd">
<svg version="1.1" xmlns="http://www.w3.org/2000/svg" xmlns:xlink="http://www.w3.org/1999/xlink" x="0px" y="0px" viewBox="0 0 1000 1000" enable-background="new 0 0 1000 1000" xml:space="preserve">
	<metadata> Svg Vector Icons : http://www.sfont.cn </metadata>
	<g transform="translate(0.000000,511.000000) scale(0.100000,-0.100000)">
		<path style="fill: #A9B7B7" d="M4484.7,4991.4c-897.7-94.1-1744.5-435.1-2493.3-1003.6c-186.2-143.1-588-531.2-746.8-721.3C494,2366.8,100,1278.9,100,112.7c0-566.5,78.4-1046.7,256.8-1577.9C903.6-3092.1,2309-4342.6,3981-4689.6c652.7-135.3,1427-133.3,2056.2,2c917.3,199.9,1764.1,662.5,2432.5,1330.9c791.9,791.9,1293.7,1838.6,1411.3,2944.1c25.5,245,25.5,805.6,0,1050.6c-74.5,691.9-352.8,1497.5-715.4,2071.8c-821.3,1293.7-2169.8,2132.6-3673.2,2283.5C5260.9,5016.9,4710.2,5014.9,4484.7,4991.4z M5353.1,2208c482.2-58.8,933-198,1405.4-437.1c390.1-194.1,848.7-494,1078-701.7l105.8-96l-337.1-341.1L7268.1,291l-52.9,43.1c-29.4,23.5-123.5,105.9-211.7,180.3c-464.6,401.8-1095.7,660.6-1754.3,717.4c-521.4,47-1134.9-68.6-1630.8-305.8c-194-94.1-521.4-315.6-715.4-488.1l-166.6-147l-341.1,341.1l-343,341.1l39.2,43.1c56.8,64.7,378.3,299.9,629.2,460.6C3610.5,2045.3,4555.3,2308,5353.1,2208z M5490.3,769.3c374.4-72.5,715.4-217.6,1103.5-472.4c190.1-123.5,386.1-290.1,386.1-325.4c0-9.8-150.9-168.6-335.2-350.9c-231.3-233.2-341.1-329.3-356.8-315.6c-13.7,9.8-86.3,66.7-164.6,129.4c-186.2,149-411.6,274.4-603.7,339.1c-147,49-180.3,52.9-509.6,54.9c-317.5,0-368.5-3.9-499.8-45.1c-245-78.4-492-221.5-750.7-437.1l-74.5-62.7l-343,341L3000.9-36.3l92.1,96.1c111.7,111.7,392,301.9,652.7,441c290.1,154.9,613.5,254.8,952.6,297.9C4884.6,822.2,5288.4,806.6,5490.3,769.3z M5313.9-702.7c168.6-37.2,417.5-162.7,539-270.5l98-88.2l-476.3-476.3L5000.2-2014l-482.2,482.2l-482.2,482.2l123.5,92.1C4510.2-692.9,4888.5-610.6,5313.9-702.7z"/>
	</g>
</svg>